# xmcd CD database file
#
# Track frame offsets:
#	150
#	16973
#	32005
#	45703
#	60972
#	72339
#	84017
#	97604
#	113805
#	126693
#	140374
#	154008
#
# Disc length: 2256 seconds
#
# Revision: 0
# Processed by: cddbd v1.5.2PL0 Copyright (c) Steve Scherf et al.
# Submitted via: CDex 1.51
#
DISCID=8f08ce0c
DTITLE=Maggie Mae - Cooking Up Country
DYEAR=1900
DGENRE=Country
TTITLE0=01-Coat of Many Colors
TTITLE1=02-I Want To Be A Cowboy Sweetheart
TTITLE2=03-Daddy's Hands
TTITLE3=04-Tennesse Flat Top Box
TTITLE4=05-Tonight The Heartache's On Me
TTITLE5=06-Heaven's Just A Sin Away
TTITLE6=07-Rocky Top
TTITLE7=08-That Just About Does It, Don't It?
TTITLE8=09-Down At The Twist and Shout
TTITLE9=10-When I Die (I May Not Go To Heaven)
TTITLE10=11-Wildflowers
TTITLE11=12-Walk The Way The Wind Blows
EXTD=
EXTT0=
EXTT1=
EXTT2=
EXTT3=
EXTT4=
EXTT5=
EXTT6=
EXTT7=
EXTT8=
EXTT9=
EXTT10=
EXTT11=
PLAYORDER=
